<svg width="28" height="25" viewBox="0 0 28 25" fill="none" xmlns="http://www.w3.org/2000/svg">
<path d="M20 1C23.5555 1 26.3338 3.76664 26.334 7.33301C26.334 9.51758 25.3575 11.5849 23.4346 13.9375C21.9841 15.7121 20.0545 17.5797 17.7236 19.7236L15.2617 21.9658L15.2607 21.9668L14 23.1143L12.7402 21.9668L12.7383 21.9658L10.2773 19.7236C7.94647 17.5797 6.01694 15.7121 4.56641 13.9375C2.64344 11.5849 1.66699 9.51758 1.66699 7.33301C1.66716 3.76675 4.44469 1.00017 8 1C10.0177 1 11.9708 1.94466 13.2412 3.4248L14 4.30859L14.7588 3.4248C16.0291 1.94473 17.9824 1.0001 20 1Z" stroke="white" stroke-width="2"/>
</svg>
