<svg width="194" height="24" viewBox="0 0 194 24" fill="none" xmlns="http://www.w3.org/2000/svg">
<path d="M1.16875 23C0.934087 23 0.742087 22.9253 0.592754 22.776C0.44342 22.6267 0.368754 22.4347 0.368754 22.2V1.4C0.368754 1.16533 0.44342 0.973332 0.592754 0.823999C0.742087 0.674665 0.934087 0.599998 1.16875 0.599998H15.8568C16.0914 0.599998 16.2834 0.674665 16.4328 0.823999C16.6034 0.973332 16.6888 1.16533 16.6888 1.4V4.632C16.6888 4.86667 16.6034 5.05867 16.4328 5.208C16.2834 5.35733 16.0914 5.432 15.8568 5.432H6.00075V10.136H15.2168C15.4514 10.136 15.6434 10.2213 15.7928 10.392C15.9634 10.5413 16.0488 10.7333 16.0488 10.968V14.168C16.0488 14.3813 15.9634 14.5733 15.7928 14.744C15.6434 14.8933 15.4514 14.968 15.2168 14.968H6.00075V22.2C6.00075 22.4347 5.92609 22.6267 5.77675 22.776C5.62742 22.9253 5.43542 23 5.20075 23H1.16875ZM18.5488 23C18.3781 23 18.2181 22.936 18.0688 22.808C17.9408 22.6587 17.8768 22.4987 17.8768 22.328C17.8768 22.2213 17.8874 22.1253 17.9088 22.04L25.4288 1.496C25.4928 1.26133 25.6208 1.05867 25.8128 0.887999C26.0261 0.695999 26.3141 0.599998 26.6768 0.599998H31.4128C31.7754 0.599998 32.0528 0.695999 32.2448 0.887999C32.4581 1.05867 32.5968 1.26133 32.6608 1.496L40.1488 22.04C40.1914 22.1253 40.2128 22.2213 40.2128 22.328C40.2128 22.4987 40.1381 22.6587 39.9888 22.808C39.8608 22.936 39.7008 23 39.5088 23H35.5728C35.2528 23 35.0074 22.9253 34.8368 22.776C34.6874 22.6053 34.5914 22.456 34.5488 22.328L33.3008 19.064H24.7568L23.5408 22.328C23.4981 22.456 23.4021 22.6053 23.2528 22.776C23.1034 22.9253 22.8474 23 22.4848 23H18.5488ZM26.0688 14.456H32.0208L29.0128 6.008L26.0688 14.456ZM44.495 23C44.2603 23 44.0683 22.9253 43.919 22.776C43.7697 22.6267 43.695 22.4347 43.695 22.2V1.4C43.695 1.16533 43.7697 0.973332 43.919 0.823999C44.0683 0.674665 44.2603 0.599998 44.495 0.599998H47.887C48.2497 0.599998 48.5057 0.685332 48.655 0.855999C48.8257 1.00533 48.9323 1.12266 48.975 1.208L56.783 13.528V1.4C56.783 1.16533 56.8577 0.973332 57.007 0.823999C57.1563 0.674665 57.3483 0.599998 57.583 0.599998H61.423C61.6577 0.599998 61.8497 0.674665 61.999 0.823999C62.1483 0.973332 62.223 1.16533 62.223 1.4V22.2C62.223 22.4133 62.1483 22.6053 61.999 22.776C61.8497 22.9253 61.6577 23 61.423 23H57.999C57.6577 23 57.4017 22.9147 57.231 22.744C57.0817 22.5733 56.9857 22.456 56.943 22.392L49.135 10.552V22.2C49.135 22.4347 49.0603 22.6267 48.911 22.776C48.7617 22.9253 48.5697 23 48.335 23H44.495ZM66.375 23C66.2043 23 66.0443 22.936 65.895 22.808C65.767 22.6587 65.703 22.4987 65.703 22.328C65.703 22.2213 65.7137 22.1253 65.735 22.04L73.255 1.496C73.319 1.26133 73.447 1.05867 73.639 0.887999C73.8523 0.695999 74.1403 0.599998 74.503 0.599998H79.239C79.6017 0.599998 79.879 0.695999 80.071 0.887999C80.2843 1.05867 80.423 1.26133 80.487 1.496L87.975 22.04C88.0177 22.1253 88.039 22.2213 88.039 22.328C88.039 22.4987 87.9643 22.6587 87.815 22.808C87.687 22.936 87.527 23 87.335 23H83.399C83.079 23 82.8337 22.9253 82.663 22.776C82.5137 22.6053 82.4177 22.456 82.375 22.328L81.127 19.064H72.583L71.367 22.328C71.3243 22.456 71.2283 22.6053 71.079 22.776C70.9297 22.9253 70.6737 23 70.311 23H66.375ZM73.895 14.456H79.847L76.839 6.008L73.895 14.456ZM100.301 23.32C98.2738 23.32 96.5245 22.9893 95.0525 22.328C93.6018 21.6453 92.4712 20.664 91.6605 19.384C90.8712 18.0827 90.4338 16.504 90.3485 14.648C90.3272 13.7307 90.3165 12.76 90.3165 11.736C90.3165 10.6907 90.3272 9.69867 90.3485 8.76C90.4338 6.94667 90.8818 5.41067 91.6925 4.152C92.5032 2.89333 93.6445 1.93333 95.1165 1.272C96.5885 0.610666 98.3165 0.279999 100.301 0.279999C101.901 0.279999 103.319 0.482665 104.557 0.887999C105.794 1.272 106.829 1.79467 107.661 2.456C108.514 3.11733 109.154 3.84267 109.581 4.632C110.029 5.42133 110.263 6.2 110.285 6.968C110.306 7.16 110.242 7.32 110.093 7.448C109.965 7.576 109.805 7.64 109.613 7.64H104.941C104.706 7.64 104.525 7.608 104.397 7.544C104.29 7.45867 104.194 7.34133 104.109 7.192C103.959 6.872 103.735 6.54133 103.437 6.2C103.159 5.83733 102.765 5.528 102.253 5.272C101.762 5.016 101.111 4.888 100.301 4.888C99.0845 4.888 98.1245 5.208 97.4205 5.848C96.7378 6.488 96.3645 7.512 96.3005 8.92C96.2365 10.7547 96.2365 12.6107 96.3005 14.488C96.3645 15.9813 96.7592 17.0587 97.4845 17.72C98.2098 18.3813 99.1698 18.712 100.365 18.712C101.175 18.712 101.89 18.5733 102.509 18.296C103.149 18.0187 103.65 17.592 104.013 17.016C104.375 16.4187 104.557 15.6613 104.557 14.744V14.136H101.549C101.314 14.136 101.111 14.0613 100.941 13.912C100.791 13.7413 100.717 13.5387 100.717 13.304V10.936C100.717 10.7013 100.791 10.5093 100.941 10.36C101.111 10.1893 101.314 10.104 101.549 10.104H109.613C109.847 10.104 110.039 10.1893 110.189 10.36C110.338 10.5093 110.413 10.7013 110.413 10.936V14.584C110.413 16.4187 109.997 17.9867 109.165 19.288C108.333 20.5893 107.149 21.592 105.613 22.296C104.098 22.9787 102.327 23.32 100.301 23.32ZM124.196 23.32C122.233 23.32 120.526 23 119.076 22.36C117.625 21.72 116.494 20.76 115.684 19.48C114.873 18.1787 114.425 16.5573 114.34 14.616C114.318 13.6987 114.308 12.7813 114.308 11.864C114.308 10.9467 114.318 10.0187 114.34 9.08C114.425 7.16 114.873 5.54933 115.684 4.248C116.516 2.92533 117.657 1.93333 119.108 1.272C120.558 0.610666 122.254 0.279999 124.196 0.279999C126.116 0.279999 127.801 0.610666 129.252 1.272C130.724 1.93333 131.876 2.92533 132.708 4.248C133.54 5.54933 133.988 7.16 134.052 9.08C134.094 10.0187 134.116 10.9467 134.116 11.864C134.116 12.7813 134.094 13.6987 134.052 14.616C133.966 16.5573 133.518 18.1787 132.708 19.48C131.897 20.76 130.766 21.72 129.316 22.36C127.865 23 126.158 23.32 124.196 23.32ZM124.196 18.712C125.326 18.712 126.244 18.3707 126.948 17.688C127.673 17.0053 128.057 15.9173 128.1 14.424C128.142 13.4853 128.164 12.6 128.164 11.768C128.164 10.936 128.142 10.072 128.1 9.176C128.057 8.17333 127.865 7.36267 127.524 6.744C127.204 6.104 126.756 5.63467 126.18 5.336C125.604 5.03733 124.942 4.888 124.196 4.888C123.47 4.888 122.82 5.03733 122.244 5.336C121.668 5.63467 121.209 6.104 120.868 6.744C120.526 7.36267 120.334 8.17333 120.292 9.176C120.27 10.072 120.26 10.936 120.26 11.768C120.26 12.6 120.27 13.4853 120.292 14.424C120.356 15.9173 120.74 17.0053 121.444 17.688C122.148 18.3707 123.065 18.712 124.196 18.712ZM139.585 23C139.35 23 139.158 22.9253 139.009 22.776C138.86 22.6267 138.785 22.4347 138.785 22.2V1.4C138.785 1.16533 138.86 0.973332 139.009 0.823999C139.158 0.674665 139.35 0.599998 139.585 0.599998H148.289C151.041 0.599998 153.206 1.24 154.785 2.52C156.385 3.77867 157.185 5.57067 157.185 7.896C157.185 9.41067 156.812 10.6907 156.065 11.736C155.34 12.7813 154.38 13.5707 153.185 14.104L157.601 21.976C157.665 22.104 157.697 22.2213 157.697 22.328C157.697 22.4987 157.622 22.6587 157.473 22.808C157.345 22.936 157.185 23 156.993 23H152.769C152.364 23 152.065 22.904 151.873 22.712C151.681 22.4987 151.542 22.3067 151.457 22.136L147.809 15.096H144.513V22.2C144.513 22.4347 144.438 22.6267 144.289 22.776C144.14 22.9253 143.948 23 143.713 23H139.585ZM144.513 10.584H148.225C149.228 10.584 149.974 10.3387 150.465 9.848C150.977 9.35733 151.233 8.68533 151.233 7.832C151.233 7 150.988 6.328 150.497 5.816C150.028 5.304 149.27 5.048 148.225 5.048H144.513V10.584ZM162.67 23C162.435 23 162.243 22.9253 162.094 22.776C161.945 22.6267 161.87 22.4347 161.87 22.2V1.4C161.87 1.16533 161.945 0.973332 162.094 0.823999C162.243 0.674665 162.435 0.599998 162.67 0.599998H166.958C167.193 0.599998 167.385 0.674665 167.534 0.823999C167.683 0.973332 167.758 1.16533 167.758 1.4V22.2C167.758 22.4347 167.683 22.6267 167.534 22.776C167.385 22.9253 167.193 23 166.958 23H162.67ZM171.925 23C171.754 23 171.594 22.936 171.445 22.808C171.317 22.6587 171.253 22.4987 171.253 22.328C171.253 22.2213 171.264 22.1253 171.285 22.04L178.805 1.496C178.869 1.26133 178.997 1.05867 179.189 0.887999C179.402 0.695999 179.69 0.599998 180.053 0.599998H184.789C185.152 0.599998 185.429 0.695999 185.621 0.887999C185.834 1.05867 185.973 1.26133 186.037 1.496L193.525 22.04C193.568 22.1253 193.589 22.2213 193.589 22.328C193.589 22.4987 193.514 22.6587 193.365 22.808C193.237 22.936 193.077 23 192.885 23H188.949C188.629 23 188.384 22.9253 188.213 22.776C188.064 22.6053 187.968 22.456 187.925 22.328L186.677 19.064H178.133L176.917 22.328C176.874 22.456 176.778 22.6053 176.629 22.776C176.48 22.9253 176.224 23 175.861 23H171.925ZM179.445 14.456H185.397L182.389 6.008L179.445 14.456Z" fill="#F3B03D"/>
</svg>
