<svg width="27" height="24" viewBox="0 0 27 24" fill="none" xmlns="http://www.w3.org/2000/svg">
<path d="M6.25326 2.66654C6.2529 3.37378 5.97161 4.05192 5.47126 4.55176C4.97092 5.05161 4.2925 5.33222 3.58526 5.33187C2.87801 5.33152 2.19987 5.05022 1.70003 4.54988C1.20018 4.04953 0.919569 3.37111 0.919922 2.66387C0.920276 1.95662 1.20157 1.27849 1.70191 0.778641C2.20226 0.278794 2.88068 -0.00181813 3.58792 -0.00146451C4.29517 -0.00111089 4.9733 0.28018 5.47315 0.780527C5.973 1.28087 6.25361 1.95929 6.25326 2.66654ZM6.33326 7.30654H0.999922V23.9999H6.33326V7.30654ZM14.7599 7.30654H9.45326V23.9999H14.7066V15.2399C14.7066 10.3599 21.0666 9.90654 21.0666 15.2399V23.9999H26.3333V13.4265C26.3333 5.19987 16.9199 5.50654 14.7066 9.54654L14.7599 7.30654Z" fill="#F3B03D"/>
</svg>
